<svg width="54" height="18" viewBox="0 0 54 18" fill="none" xmlns="http://www.w3.org/2000/svg">
<g clip-path="url(#clip0_1_9)">
<mask id="mask0_1_9" style="mask-type:luminance" maskUnits="userSpaceOnUse" x="0" y="0" width="54" height="18">
<path d="M54 0H0V18H54V0Z" fill="white" style="fill:white;fill-opacity:1;"/>
</mask>
<g mask="url(#mask0_1_9)">
<path d="M-126 9L-113.21 4C-104.986 0.785134 -95.8536 0.785135 -87.63 4C-79.4064 7.21487 -70.2736 7.21487 -62.05 4C-53.8264 0.785135 -44.6936 0.785135 -36.47 4C-28.2464 7.21487 -19.1136 7.21487 -10.89 4C-2.66636 0.785135 6.46637 0.785135 14.69 4C22.9136 7.21487 32.0464 7.21487 40.27 4C48.4936 0.785135 57.6264 0.785135 65.85 4C74.0736 7.21487 83.2064 7.21487 91.43 4C99.6536 0.785135 108.786 0.785135 117.01 4C125.234 7.21487 134.366 7.21487 142.59 4C150.814 0.785135 159.946 0.785135 168.17 4C176.394 7.21487 185.526 7.21487 193.75 4C201.974 0.785135 211.106 0.785135 219.33 4C227.554 7.21487 236.686 7.21487 244.91 4C253.134 0.785135 262.266 0.785135 270.49 4C278.714 7.21487 287.846 7.21487 296.07 4C304.294 0.785135 313.426 0.785135 321.65 4C329.874 7.21487 339.006 7.21487 347.23 4C355.454 0.785135 364.586 0.785135 372.81 4C381.034 7.21487 390.166 7.21487 398.39 4C406.614 0.785135 415.746 0.785135 423.97 4C432.194 7.21487 441.326 7.21487 449.55 4C457.774 0.785135 466.906 0.785135 475.13 4C483.354 7.21487 492.486 7.21487 500.71 4C508.934 0.785135 518.066 0.785135 526.29 4C534.514 7.21487 543.646 7.21487 551.87 4C560.094 0.785135 569.226 0.785135 577.45 4C585.674 7.21487 594.806 7.21487 603.03 4C611.254 0.785135 620.386 0.785135 628.61 4C636.834 7.21487 645.966 7.21487 654.19 4C662.414 0.785135 671.546 0.785135 679.77 4C687.994 7.21487 697.126 7.21487 705.35 4C713.574 0.785135 722.706 0.785135 730.93 4C739.154 7.21487 748.286 7.21487 756.51 4C764.734 0.785135 773.866 0.785135 782.09 4C790.314 7.21487 799.446 7.21487 807.67 4C815.894 0.785135 825.026 0.785135 833.25 4C841.474 7.21487 850.606 7.21487 858.83 4C867.054 0.785135 876.186 0.785135 884.41 4C892.634 7.21487 901.766 7.21487 909.99 4C918.214 0.785135 927.346 0.785135 935.57 4C943.794 7.21487 952.926 7.21487 961.15 4C969.374 0.785135 978.506 0.785135 986.73 4C994.954 7.21487 1004.09 7.21487 1012.31 4C1020.53 0.785135 1029.67 0.785135 1037.89 4C1046.11 7.21487 1055.25 7.21487 1063.47 4C1071.69 0.785135 1080.83 0.785135 1089.05 4C1097.27 7.21487 1106.41 7.21487 1114.63 4C1122.85 0.785135 1131.99 0.785138 1140.21 4L1153 9" stroke="#9481FF" stroke-opacity="0.3" style="stroke:#9481FF;stroke:color(display-p3 0.5800 0.5061 1.0000);stroke-opacity:0.3;" stroke-width="2"/>
<path d="M-126 19L-113.21 14C-104.986 10.7851 -95.8536 10.7851 -87.63 14C-79.4064 17.2149 -70.2736 17.2149 -62.05 14C-53.8264 10.7851 -44.6936 10.7851 -36.47 14C-28.2464 17.2149 -19.1136 17.2149 -10.89 14C-2.66636 10.7851 6.46637 10.7851 14.69 14C22.9136 17.2149 32.0464 17.2149 40.27 14C48.4936 10.7851 57.6264 10.7851 65.85 14C74.0736 17.2149 83.2064 17.2149 91.43 14C99.6536 10.7851 108.786 10.7851 117.01 14C125.234 17.2149 134.366 17.2149 142.59 14C150.814 10.7851 159.946 10.7851 168.17 14C176.394 17.2149 185.526 17.2149 193.75 14C201.974 10.7851 211.106 10.7851 219.33 14C227.554 17.2149 236.686 17.2149 244.91 14C253.134 10.7851 262.266 10.7851 270.49 14C278.714 17.2149 287.846 17.2149 296.07 14C304.294 10.7851 313.426 10.7851 321.65 14C329.874 17.2149 339.006 17.2149 347.23 14C355.454 10.7851 364.586 10.7851 372.81 14C381.034 17.2149 390.166 17.2149 398.39 14C406.614 10.7851 415.746 10.7851 423.97 14C432.194 17.2149 441.326 17.2149 449.55 14C457.774 10.7851 466.906 10.7851 475.13 14C483.354 17.2149 492.486 17.2149 500.71 14C508.934 10.7851 518.066 10.7851 526.29 14C534.514 17.2149 543.646 17.2149 551.87 14C560.094 10.7851 569.226 10.7851 577.45 14C585.674 17.2149 594.806 17.2149 603.03 14C611.254 10.7851 620.386 10.7851 628.61 14C636.834 17.2149 645.966 17.2149 654.19 14C662.414 10.7851 671.546 10.7851 679.77 14C687.994 17.2149 697.126 17.2149 705.35 14C713.574 10.7851 722.706 10.7851 730.93 14C739.154 17.2149 748.286 17.2149 756.51 14C764.734 10.7851 773.866 10.7851 782.09 14C790.314 17.2149 799.446 17.2149 807.67 14C815.894 10.7851 825.026 10.7851 833.25 14C841.474 17.2149 850.606 17.2149 858.83 14C867.054 10.7851 876.186 10.7851 884.41 14C892.634 17.2149 901.766 17.2149 909.99 14C918.214 10.7851 927.346 10.7851 935.57 14C943.794 17.2149 952.926 17.2149 961.15 14C969.374 10.7851 978.506 10.7851 986.73 14C994.954 17.2149 1004.09 17.2149 1012.31 14C1020.53 10.7851 1029.67 10.7851 1037.89 14C1046.11 17.2149 1055.25 17.2149 1063.47 14C1071.69 10.7851 1080.83 10.7851 1089.05 14C1097.27 17.2149 1106.41 17.2149 1114.63 14C1122.85 10.7851 1131.99 10.7851 1140.21 14L1153 19" stroke="white" stroke-opacity="0.09" style="stroke:white;stroke-opacity:0.09;" stroke-width="2"/>
</g>
</g>
<defs>
<clipPath id="clip0_1_9">
<rect width="54" height="18" fill="white" style="fill:white;fill-opacity:1;"/>
</clipPath>
</defs>
</svg>
