<svg width="54" height="18" viewBox="0 0 54 18" fill="none" xmlns="http://www.w3.org/2000/svg">
<g clip-path="url(#clip0_4_2)">
<mask id="mask0_4_2" style="mask-type:luminance" maskUnits="userSpaceOnUse" x="0" y="0" width="54" height="18">
<path d="M54 0H0V18H54V0Z" fill="white" style="fill:white;fill-opacity:1;"/>
</mask>
<g mask="url(#mask0_4_2)">
<path d="M-126 14.4112L-113.21 9.41115C-104.986 6.19628 -95.8536 6.19628 -87.63 9.41115C-79.4064 12.626 -70.2736 12.626 -62.05 9.41115C-53.8264 6.19628 -44.6936 6.19628 -36.47 9.41115C-28.2464 12.626 -19.1136 12.626 -10.89 9.41115C-2.66636 6.19628 6.46637 6.19628 14.69 9.41115C22.9136 12.626 32.0464 12.626 40.27 9.41115C48.4936 6.19628 57.6264 6.19628 65.85 9.41115C74.0736 12.626 83.2064 12.626 91.43 9.41115C99.6536 6.19628 108.786 6.19628 117.01 9.41115C125.234 12.626 134.366 12.626 142.59 9.41115C150.814 6.19628 159.946 6.19628 168.17 9.41115C176.394 12.626 185.526 12.626 193.75 9.41115C201.974 6.19628 211.106 6.19628 219.33 9.41115C227.554 12.626 236.686 12.626 244.91 9.41115C253.134 6.19628 262.266 6.19628 270.49 9.41115C278.714 12.626 287.846 12.626 296.07 9.41115C304.294 6.19628 313.426 6.19628 321.65 9.41115C329.874 12.626 339.006 12.626 347.23 9.41115C355.454 6.19628 364.586 6.19628 372.81 9.41115C381.034 12.626 390.166 12.626 398.39 9.41115C406.614 6.19628 415.746 6.19628 423.97 9.41115C432.194 12.626 441.326 12.626 449.55 9.41115C457.774 6.19628 466.906 6.19628 475.13 9.41115C483.354 12.626 492.486 12.626 500.71 9.41115C508.934 6.19628 518.066 6.19628 526.29 9.41115C534.514 12.626 543.646 12.626 551.87 9.41115C560.094 6.19628 569.226 6.19628 577.45 9.41115C585.674 12.626 594.806 12.626 603.03 9.41115C611.254 6.19628 620.386 6.19628 628.61 9.41115C636.834 12.626 645.966 12.626 654.19 9.41115C662.414 6.19628 671.546 6.19628 679.77 9.41115C687.994 12.626 697.126 12.626 705.35 9.41115C713.574 6.19628 722.706 6.19628 730.93 9.41115C739.154 12.626 748.286 12.626 756.51 9.41115C764.734 6.19628 773.866 6.19628 782.09 9.41115C790.314 12.626 799.446 12.626 807.67 9.41115C815.894 6.19628 825.026 6.19628 833.25 9.41115C841.474 12.626 850.606 12.626 858.83 9.41115C867.054 6.19628 876.186 6.19628 884.41 9.41115C892.634 12.626 901.766 12.626 909.99 9.41115C918.214 6.19628 927.346 6.19628 935.57 9.41115C943.794 12.626 952.926 12.626 961.15 9.41115C969.374 6.19628 978.506 6.19628 986.73 9.41115C994.954 12.626 1004.09 12.626 1012.31 9.41115C1020.53 6.19628 1029.67 6.19628 1037.89 9.41115C1046.11 12.626 1055.25 12.626 1063.47 9.41115C1071.69 6.19628 1080.83 6.19628 1089.05 9.41115C1097.27 12.626 1106.41 12.626 1114.63 9.41115C1122.85 6.19628 1131.99 6.19629 1140.21 9.41115L1153 14.4112" stroke="#9481FF" stroke-opacity="0.3" style="stroke:#9481FF;stroke:color(display-p3 0.5800 0.5061 1.0000);stroke-opacity:0.3;" stroke-width="2"/>
</g>
</g>
<defs>
<clipPath id="clip0_4_2">
<rect width="54" height="18" fill="white" style="fill:white;fill-opacity:1;"/>
</clipPath>
</defs>
</svg>
